<svg xmlns="http://www.w3.org/2000/svg" xmlns:xlink="http://www.w3.org/1999/xlink" width="940" zoomAndPan="magnify" viewBox="0 0 705 320.999992" height="428" preserveAspectRatio="xMidYMid meet" version="1.0"><defs><g/><clipPath id="e0b2061d9e"><rect x="0" width="545" y="0" height="200"/></clipPath></defs><g transform="matrix(1, 0, 0, 1, 75, 60)"><g clip-path="url(#e0b2061d9e)"><g fill="#35425b" fill-opacity="1"><g transform="translate(0.238839, 148.95053)"><g><path d="M 41.375 0.984375 C 34.851562 0.984375 29.113281 -0.144531 24.15625 -2.40625 C 19.195312 -4.675781 15.300781 -7.84375 12.46875 -11.90625 C 9.632812 -15.96875 8.125 -20.5 7.9375 -25.5 L 18.421875 -25.5 C 18.890625 -20.6875 21.015625 -16.460938 24.796875 -12.828125 C 28.578125 -9.191406 34.101562 -7.375 41.375 -7.375 C 48.082031 -7.375 53.394531 -9.09375 57.3125 -12.53125 C 61.226562 -15.976562 63.1875 -20.347656 63.1875 -25.640625 C 63.1875 -29.890625 62.097656 -33.3125 59.921875 -35.90625 C 57.753906 -38.507812 55.066406 -40.445312 51.859375 -41.71875 C 48.648438 -43 44.207031 -44.394531 38.53125 -45.90625 C 31.925781 -47.695312 26.6875 -49.441406 22.8125 -51.140625 C 18.9375 -52.847656 15.628906 -55.492188 12.890625 -59.078125 C 10.148438 -62.671875 8.78125 -67.535156 8.78125 -73.671875 C 8.78125 -78.773438 10.101562 -83.332031 12.75 -87.34375 C 15.394531 -91.363281 19.125 -94.503906 23.9375 -96.765625 C 28.757812 -99.035156 34.285156 -100.171875 40.515625 -100.171875 C 49.679688 -100.171875 57.070312 -97.925781 62.6875 -93.4375 C 68.3125 -88.957031 71.550781 -83.175781 72.40625 -76.09375 L 61.640625 -76.09375 C 60.972656 -80.144531 58.75 -83.753906 54.96875 -86.921875 C 51.195312 -90.085938 46.097656 -91.671875 39.671875 -91.671875 C 33.722656 -91.671875 28.765625 -90.085938 24.796875 -86.921875 C 20.828125 -83.753906 18.84375 -79.429688 18.84375 -73.953125 C 18.84375 -69.804688 19.925781 -66.457031 22.09375 -63.90625 C 24.269531 -61.351562 26.988281 -59.414062 30.25 -58.09375 C 33.507812 -56.769531 37.925781 -55.351562 43.5 -53.84375 C 49.914062 -52.050781 55.109375 -50.28125 59.078125 -48.53125 C 63.046875 -46.78125 66.398438 -44.109375 69.140625 -40.515625 C 71.878906 -36.929688 73.25 -32.117188 73.25 -26.078125 C 73.25 -21.441406 72.019531 -17.046875 69.5625 -12.890625 C 67.113281 -8.734375 63.476562 -5.378906 58.65625 -2.828125 C 53.84375 -0.285156 48.082031 0.984375 41.375 0.984375 Z M 41.375 0.984375 "/></g></g></g><g fill="#35425b" fill-opacity="1"><g transform="translate(81.282924, 148.95053)"><g><path d="M 6.796875 -38.828125 C 6.796875 -46.753906 8.378906 -53.71875 11.546875 -59.71875 C 14.710938 -65.71875 19.101562 -70.347656 24.71875 -73.609375 C 30.34375 -76.867188 36.695312 -78.5 43.78125 -78.5 C 51.144531 -78.5 57.492188 -76.796875 62.828125 -73.390625 C 68.171875 -69.992188 72.023438 -65.648438 74.390625 -60.359375 L 74.390625 -77.359375 L 84.296875 -77.359375 L 84.296875 0 L 74.390625 0 L 74.390625 -17.140625 C 71.929688 -11.847656 68.03125 -7.476562 62.6875 -4.03125 C 57.351562 -0.582031 51.003906 1.140625 43.640625 1.140625 C 36.648438 1.140625 30.34375 -0.507812 24.71875 -3.8125 C 19.101562 -7.125 14.710938 -11.800781 11.546875 -17.84375 C 8.378906 -23.894531 6.796875 -30.890625 6.796875 -38.828125 Z M 74.390625 -38.6875 C 74.390625 -44.914062 73.113281 -50.390625 70.5625 -55.109375 C 68.007812 -59.835938 64.535156 -63.476562 60.140625 -66.03125 C 55.753906 -68.582031 50.914062 -69.859375 45.625 -69.859375 C 40.144531 -69.859375 35.234375 -68.628906 30.890625 -66.171875 C 26.546875 -63.710938 23.117188 -60.144531 20.609375 -55.46875 C 18.109375 -50.789062 16.859375 -45.242188 16.859375 -38.828125 C 16.859375 -32.492188 18.109375 -26.941406 20.609375 -22.171875 C 23.117188 -17.398438 26.546875 -13.765625 30.890625 -11.265625 C 35.234375 -8.765625 40.144531 -7.515625 45.625 -7.515625 C 50.914062 -7.515625 55.753906 -8.785156 60.140625 -11.328125 C 64.535156 -13.878906 68.007812 -17.515625 70.5625 -22.234375 C 73.113281 -26.960938 74.390625 -32.445312 74.390625 -38.6875 Z M 74.390625 -38.6875 "/></g></g></g><g fill="#35425b" fill-opacity="1"><g transform="translate(176.920612, 148.95053)"><g><path d="M 38.828125 -9.640625 L 64.890625 -77.359375 L 75.375 -77.359375 L 44.34375 0 L 33.15625 0 L 2.125 -77.359375 L 12.75 -77.359375 Z M 38.828125 -9.640625 "/></g></g></g><g fill="#35425b" fill-opacity="1"><g transform="translate(254.422549, 148.95053)"><g><path d="M 16.296875 -91.953125 C 14.304688 -91.953125 12.601562 -92.660156 11.1875 -94.078125 C 9.769531 -95.492188 9.0625 -97.242188 9.0625 -99.328125 C 9.0625 -101.398438 9.769531 -103.117188 11.1875 -104.484375 C 12.601562 -105.859375 14.304688 -106.546875 16.296875 -106.546875 C 18.273438 -106.546875 19.972656 -105.859375 21.390625 -104.484375 C 22.804688 -103.117188 23.515625 -101.398438 23.515625 -99.328125 C 23.515625 -97.242188 22.804688 -95.492188 21.390625 -94.078125 C 19.972656 -92.660156 18.273438 -91.953125 16.296875 -91.953125 Z M 21.25 -77.359375 L 21.25 0 L 11.328125 0 L 11.328125 -77.359375 Z M 21.25 -77.359375 "/></g></g></g><g fill="#35425b" fill-opacity="1"><g transform="translate(286.868516, 148.95053)"><g><path d="M 47.609375 -78.78125 C 56.867188 -78.78125 64.425781 -75.921875 70.28125 -70.203125 C 76.132812 -64.492188 79.0625 -56.207031 79.0625 -45.34375 L 79.0625 0 L 69.28125 0 L 69.28125 -44.203125 C 69.28125 -52.609375 67.175781 -59.03125 62.96875 -63.46875 C 58.769531 -67.914062 53.035156 -70.140625 45.765625 -70.140625 C 38.304688 -70.140625 32.351562 -67.773438 27.90625 -63.046875 C 23.46875 -58.328125 21.25 -51.382812 21.25 -42.21875 L 21.25 0 L 11.328125 0 L 11.328125 -77.359375 L 21.25 -77.359375 L 21.25 -64.1875 C 23.707031 -68.90625 27.25 -72.515625 31.875 -75.015625 C 36.507812 -77.523438 41.753906 -78.78125 47.609375 -78.78125 Z M 47.609375 -78.78125 "/></g></g></g><g fill="#35425b" fill-opacity="1"><g transform="translate(376.55542, 148.95053)"><g><path d="M 43.78125 -78.5 C 51.050781 -78.5 57.378906 -76.796875 62.765625 -73.390625 C 68.148438 -69.992188 72.023438 -65.695312 74.390625 -60.5 L 74.390625 -77.359375 L 84.296875 -77.359375 L 84.296875 1.984375 C 84.296875 9.066406 82.757812 15.347656 79.6875 20.828125 C 76.625 26.304688 72.351562 30.53125 66.875 33.5 C 61.394531 36.476562 55.160156 37.96875 48.171875 37.96875 C 38.253906 37.96875 30.015625 35.601562 23.453125 30.875 C 16.890625 26.15625 12.800781 19.738281 11.1875 11.625 L 20.96875 11.625 C 22.664062 17 25.898438 21.289062 30.671875 24.5 C 35.441406 27.71875 41.273438 29.328125 48.171875 29.328125 C 53.179688 29.328125 57.664062 28.265625 61.625 26.140625 C 65.59375 24.015625 68.710938 20.875 70.984375 16.71875 C 73.253906 12.5625 74.390625 7.648438 74.390625 1.984375 L 74.390625 -17.140625 C 71.929688 -11.847656 68.03125 -7.476562 62.6875 -4.03125 C 57.351562 -0.582031 51.050781 1.140625 43.78125 1.140625 C 36.695312 1.140625 30.34375 -0.507812 24.71875 -3.8125 C 19.101562 -7.125 14.710938 -11.800781 11.546875 -17.84375 C 8.378906 -23.894531 6.796875 -30.890625 6.796875 -38.828125 C 6.796875 -46.753906 8.378906 -53.71875 11.546875 -59.71875 C 14.710938 -65.71875 19.101562 -70.347656 24.71875 -73.609375 C 30.34375 -76.867188 36.695312 -78.5 43.78125 -78.5 Z M 74.390625 -38.6875 C 74.390625 -44.914062 73.113281 -50.390625 70.5625 -55.109375 C 68.007812 -59.835938 64.535156 -63.476562 60.140625 -66.03125 C 55.753906 -68.582031 50.914062 -69.859375 45.625 -69.859375 C 40.144531 -69.859375 35.234375 -68.628906 30.890625 -66.171875 C 26.546875 -63.710938 23.117188 -60.144531 20.609375 -55.46875 C 18.109375 -50.789062 16.859375 -45.242188 16.859375 -38.828125 C 16.859375 -32.492188 18.109375 -26.941406 20.609375 -22.171875 C 23.117188 -17.398438 26.546875 -13.765625 30.890625 -11.265625 C 35.234375 -8.765625 40.144531 -7.515625 45.625 -7.515625 C 50.914062 -7.515625 55.753906 -8.785156 60.140625 -11.328125 C 64.535156 -13.878906 68.007812 -17.515625 70.5625 -22.234375 C 73.113281 -26.960938 74.390625 -32.445312 74.390625 -38.6875 Z M 74.390625 -38.6875 "/></g></g></g><g fill="#35425b" fill-opacity="1"><g transform="translate(472.193097, 148.95053)"><g><path d="M 37.96875 1.140625 C 29.09375 1.140625 21.84375 -0.910156 16.21875 -5.015625 C 10.601562 -9.128906 7.460938 -14.726562 6.796875 -21.8125 L 17 -21.8125 C 17.46875 -17.46875 19.519531 -13.945312 23.15625 -11.25 C 26.800781 -8.5625 31.691406 -7.21875 37.828125 -7.21875 C 43.210938 -7.21875 47.4375 -8.492188 50.5 -11.046875 C 53.570312 -13.597656 55.109375 -16.765625 55.109375 -20.546875 C 55.109375 -23.191406 54.257812 -25.363281 52.5625 -27.0625 C 50.863281 -28.757812 48.710938 -30.101562 46.109375 -31.09375 C 43.515625 -32.09375 40 -33.15625 35.5625 -34.28125 C 29.800781 -35.800781 25.125 -37.316406 21.53125 -38.828125 C 17.945312 -40.335938 14.898438 -42.578125 12.390625 -45.546875 C 9.890625 -48.523438 8.640625 -52.519531 8.640625 -57.53125 C 8.640625 -61.300781 9.769531 -64.789062 12.03125 -68 C 14.300781 -71.21875 17.515625 -73.769531 21.671875 -75.65625 C 25.828125 -77.550781 30.550781 -78.5 35.84375 -78.5 C 44.15625 -78.5 50.863281 -76.394531 55.96875 -72.1875 C 61.070312 -67.988281 63.8125 -62.203125 64.1875 -54.828125 L 54.265625 -54.828125 C 53.984375 -59.367188 52.210938 -63.03125 48.953125 -65.8125 C 45.691406 -68.601562 41.226562 -70 35.5625 -70 C 30.550781 -70 26.488281 -68.816406 23.375 -66.453125 C 20.257812 -64.085938 18.703125 -61.160156 18.703125 -57.671875 C 18.703125 -54.640625 19.625 -52.15625 21.46875 -50.21875 C 23.3125 -48.289062 25.601562 -46.78125 28.34375 -45.6875 C 31.082031 -44.601562 34.765625 -43.398438 39.390625 -42.078125 C 44.960938 -40.566406 49.398438 -39.101562 52.703125 -37.6875 C 56.015625 -36.269531 58.847656 -34.191406 61.203125 -31.453125 C 63.566406 -28.710938 64.796875 -25.078125 64.890625 -20.546875 C 64.890625 -16.390625 63.753906 -12.679688 61.484375 -9.421875 C 59.222656 -6.160156 56.0625 -3.582031 52 -1.6875 C 47.9375 0.195312 43.257812 1.140625 37.96875 1.140625 Z M 37.96875 1.140625 "/></g></g></g></g></g></svg>