<svg xmlns="http://www.w3.org/2000/svg" xmlns:xlink="http://www.w3.org/1999/xlink" width="940" zoomAndPan="magnify" viewBox="0 0 705 466.499986" height="622" preserveAspectRatio="xMidYMid meet" version="1.0"><defs><g/><clipPath id="a8ddfd65dc"><rect x="0" width="545" y="0" height="199"/></clipPath></defs><g transform="matrix(1, 0, 0, 1, 75, 206)"><g clip-path="url(#a8ddfd65dc)"><g fill="#000000" fill-opacity="1"><g transform="translate(0.535694, 148.054991)"><g><path d="M 41.328125 0.984375 C 34.816406 0.984375 29.082031 -0.144531 24.125 -2.40625 C 19.175781 -4.664062 15.285156 -7.820312 12.453125 -11.875 C 9.617188 -15.9375 8.109375 -20.46875 7.921875 -25.46875 L 18.40625 -25.46875 C 18.875 -20.65625 20.992188 -16.429688 24.765625 -12.796875 C 28.535156 -9.171875 34.054688 -7.359375 41.328125 -7.359375 C 48.023438 -7.359375 53.332031 -9.078125 57.25 -12.515625 C 61.164062 -15.960938 63.125 -20.328125 63.125 -25.609375 C 63.125 -29.859375 62.035156 -33.28125 59.859375 -35.875 C 57.691406 -38.46875 55.003906 -40.398438 51.796875 -41.671875 C 48.585938 -42.953125 44.15625 -44.347656 38.5 -45.859375 C 31.894531 -47.648438 26.65625 -49.394531 22.78125 -51.09375 C 18.914062 -52.789062 15.613281 -55.429688 12.875 -59.015625 C 10.144531 -62.597656 8.78125 -67.457031 8.78125 -73.59375 C 8.78125 -78.6875 10.097656 -83.238281 12.734375 -87.25 C 15.378906 -91.257812 19.109375 -94.394531 23.921875 -96.65625 C 28.734375 -98.925781 34.253906 -100.0625 40.484375 -100.0625 C 49.628906 -100.0625 57.007812 -97.816406 62.625 -93.328125 C 68.238281 -88.847656 71.472656 -83.070312 72.328125 -76 L 61.5625 -76 C 60.90625 -80.0625 58.6875 -83.671875 54.90625 -86.828125 C 51.132812 -89.992188 46.039062 -91.578125 39.625 -91.578125 C 33.6875 -91.578125 28.734375 -89.992188 24.765625 -86.828125 C 20.804688 -83.671875 18.828125 -79.351562 18.828125 -73.875 C 18.828125 -69.726562 19.910156 -66.378906 22.078125 -63.828125 C 24.242188 -61.285156 26.953125 -59.351562 30.203125 -58.03125 C 33.460938 -56.707031 37.878906 -55.289062 43.453125 -53.78125 C 49.867188 -51.988281 55.054688 -50.21875 59.015625 -48.46875 C 62.984375 -46.726562 66.332031 -44.0625 69.0625 -40.46875 C 71.800781 -36.882812 73.171875 -32.078125 73.171875 -26.046875 C 73.171875 -21.421875 71.941406 -17.03125 69.484375 -12.875 C 67.035156 -8.726562 63.40625 -5.378906 58.59375 -2.828125 C 53.78125 -0.285156 48.023438 0.984375 41.328125 0.984375 Z M 41.328125 0.984375 "/></g></g></g><g fill="#000000" fill-opacity="1"><g transform="translate(81.493007, 148.054991)"><g><path d="M 6.796875 -38.78125 C 6.796875 -46.707031 8.375 -53.664062 11.53125 -59.65625 C 14.695312 -65.644531 19.085938 -70.265625 24.703125 -73.515625 C 30.316406 -76.773438 36.660156 -78.40625 43.734375 -78.40625 C 51.085938 -78.40625 57.429688 -76.707031 62.765625 -73.3125 C 68.097656 -69.914062 71.941406 -65.578125 74.296875 -60.296875 L 74.296875 -77.28125 L 84.21875 -77.28125 L 84.21875 0 L 74.296875 0 L 74.296875 -17.125 C 71.847656 -11.84375 67.957031 -7.476562 62.625 -4.03125 C 57.289062 -0.59375 50.945312 1.125 43.59375 1.125 C 36.613281 1.125 30.316406 -0.523438 24.703125 -3.828125 C 19.085938 -7.128906 14.695312 -11.796875 11.53125 -17.828125 C 8.375 -23.867188 6.796875 -30.851562 6.796875 -38.78125 Z M 74.296875 -38.640625 C 74.296875 -44.867188 73.019531 -50.335938 70.46875 -55.046875 C 67.925781 -59.765625 64.460938 -63.398438 60.078125 -65.953125 C 55.691406 -68.503906 50.859375 -69.78125 45.578125 -69.78125 C 40.097656 -69.78125 35.1875 -68.550781 30.84375 -66.09375 C 26.507812 -63.644531 23.09375 -60.082031 20.59375 -55.40625 C 18.09375 -50.738281 16.84375 -45.195312 16.84375 -38.78125 C 16.84375 -32.457031 18.09375 -26.910156 20.59375 -22.140625 C 23.09375 -17.378906 26.507812 -13.75 30.84375 -11.25 C 35.1875 -8.75 40.097656 -7.5 45.578125 -7.5 C 50.859375 -7.5 55.691406 -8.769531 60.078125 -11.3125 C 64.460938 -13.863281 67.925781 -17.5 70.46875 -22.21875 C 73.019531 -26.9375 74.296875 -32.410156 74.296875 -38.640625 Z M 74.296875 -38.640625 "/></g></g></g><g fill="#000000" fill-opacity="1"><g transform="translate(177.028299, 148.054991)"><g><path d="M 38.78125 -9.625 L 64.828125 -77.28125 L 75.296875 -77.28125 L 44.296875 0 L 33.125 0 L 2.125 -77.28125 L 12.734375 -77.28125 Z M 38.78125 -9.625 "/></g></g></g><g fill="#000000" fill-opacity="1"><g transform="translate(254.447258, 148.054991)"><g><path d="M 16.28125 -91.859375 C 14.289062 -91.859375 12.585938 -92.5625 11.171875 -93.96875 C 9.765625 -95.382812 9.0625 -97.132812 9.0625 -99.21875 C 9.0625 -101.289062 9.765625 -103.007812 11.171875 -104.375 C 12.585938 -105.75 14.289062 -106.4375 16.28125 -106.4375 C 18.257812 -106.4375 19.957031 -105.75 21.375 -104.375 C 22.789062 -103.007812 23.5 -101.289062 23.5 -99.21875 C 23.5 -97.132812 22.789062 -95.382812 21.375 -93.96875 C 19.957031 -92.5625 18.257812 -91.859375 16.28125 -91.859375 Z M 21.234375 -77.28125 L 21.234375 0 L 11.328125 0 L 11.328125 -77.28125 Z M 21.234375 -77.28125 "/></g></g></g><g fill="#000000" fill-opacity="1"><g transform="translate(286.858486, 148.054991)"><g><path d="M 47.546875 -78.6875 C 56.796875 -78.6875 64.34375 -75.832031 70.1875 -70.125 C 76.039062 -64.414062 78.96875 -56.140625 78.96875 -45.296875 L 78.96875 0 L 69.203125 0 L 69.203125 -44.15625 C 69.203125 -52.550781 67.101562 -58.96875 62.90625 -63.40625 C 58.707031 -67.84375 52.976562 -70.0625 45.71875 -70.0625 C 38.257812 -70.0625 32.3125 -67.703125 27.875 -62.984375 C 23.445312 -58.265625 21.234375 -51.328125 21.234375 -42.171875 L 21.234375 0 L 11.328125 0 L 11.328125 -77.28125 L 21.234375 -77.28125 L 21.234375 -64.109375 C 23.679688 -68.828125 27.21875 -72.4375 31.84375 -74.9375 C 36.46875 -77.4375 41.703125 -78.6875 47.546875 -78.6875 Z M 47.546875 -78.6875 "/></g></g></g><g fill="#000000" fill-opacity="1"><g transform="translate(376.449365, 148.054991)"><g><path d="M 43.734375 -78.40625 C 50.992188 -78.40625 57.3125 -76.707031 62.6875 -73.3125 C 68.070312 -69.914062 71.941406 -65.625 74.296875 -60.4375 L 74.296875 -77.28125 L 84.21875 -77.28125 L 84.21875 1.984375 C 84.21875 9.054688 82.679688 15.328125 79.609375 20.796875 C 76.546875 26.273438 72.273438 30.5 66.796875 33.46875 C 61.328125 36.445312 55.101562 37.9375 48.125 37.9375 C 38.21875 37.9375 29.984375 35.578125 23.421875 30.859375 C 16.867188 26.140625 12.789062 19.722656 11.1875 11.609375 L 20.953125 11.609375 C 22.648438 16.984375 25.878906 21.273438 30.640625 24.484375 C 35.398438 27.691406 41.226562 29.296875 48.125 29.296875 C 53.125 29.296875 57.601562 28.234375 61.5625 26.109375 C 65.53125 23.984375 68.644531 20.84375 70.90625 16.6875 C 73.164062 12.539062 74.296875 7.640625 74.296875 1.984375 L 74.296875 -17.125 C 71.847656 -11.84375 67.957031 -7.476562 62.625 -4.03125 C 57.289062 -0.59375 50.992188 1.125 43.734375 1.125 C 36.660156 1.125 30.316406 -0.523438 24.703125 -3.828125 C 19.085938 -7.128906 14.695312 -11.796875 11.53125 -17.828125 C 8.375 -23.867188 6.796875 -30.851562 6.796875 -38.78125 C 6.796875 -46.707031 8.375 -53.664062 11.53125 -59.65625 C 14.695312 -65.644531 19.085938 -70.265625 24.703125 -73.515625 C 30.316406 -76.773438 36.660156 -78.40625 43.734375 -78.40625 Z M 74.296875 -38.640625 C 74.296875 -44.867188 73.019531 -50.335938 70.46875 -55.046875 C 67.925781 -59.765625 64.460938 -63.398438 60.078125 -65.953125 C 55.691406 -68.503906 50.859375 -69.78125 45.578125 -69.78125 C 40.097656 -69.78125 35.1875 -68.550781 30.84375 -66.09375 C 26.507812 -63.644531 23.09375 -60.082031 20.59375 -55.40625 C 18.09375 -50.738281 16.84375 -45.195312 16.84375 -38.78125 C 16.84375 -32.457031 18.09375 -26.910156 20.59375 -22.140625 C 23.09375 -17.378906 26.507812 -13.75 30.84375 -11.25 C 35.1875 -8.75 40.097656 -7.5 45.578125 -7.5 C 50.859375 -7.5 55.691406 -8.769531 60.078125 -11.3125 C 64.460938 -13.863281 67.925781 -17.5 70.46875 -22.21875 C 73.019531 -26.9375 74.296875 -32.410156 74.296875 -38.640625 Z M 74.296875 -38.640625 "/></g></g></g><g fill="#000000" fill-opacity="1"><g transform="translate(471.984645, 148.054991)"><g><path d="M 37.9375 1.125 C 29.0625 1.125 21.816406 -0.925781 16.203125 -5.03125 C 10.585938 -9.132812 7.453125 -14.722656 6.796875 -21.796875 L 16.984375 -21.796875 C 17.453125 -17.453125 19.503906 -13.9375 23.140625 -11.25 C 26.773438 -8.5625 31.65625 -7.21875 37.78125 -7.21875 C 43.164062 -7.21875 47.390625 -8.488281 50.453125 -11.03125 C 53.523438 -13.582031 55.0625 -16.742188 55.0625 -20.515625 C 55.0625 -23.160156 54.207031 -25.332031 52.5 -27.03125 C 50.800781 -28.726562 48.65625 -30.070312 46.0625 -31.0625 C 43.46875 -32.050781 39.957031 -33.113281 35.53125 -34.25 C 29.769531 -35.757812 25.097656 -37.269531 21.515625 -38.78125 C 17.929688 -40.289062 14.890625 -42.53125 12.390625 -45.5 C 9.890625 -48.46875 8.640625 -52.457031 8.640625 -57.46875 C 8.640625 -61.238281 9.769531 -64.726562 12.03125 -67.9375 C 14.289062 -71.144531 17.492188 -73.691406 21.640625 -75.578125 C 25.796875 -77.460938 30.519531 -78.40625 35.8125 -78.40625 C 44.113281 -78.40625 50.8125 -76.304688 55.90625 -72.109375 C 61 -67.910156 63.734375 -62.128906 64.109375 -54.765625 L 54.203125 -54.765625 C 53.921875 -59.296875 52.148438 -62.953125 48.890625 -65.734375 C 45.640625 -68.523438 41.1875 -69.921875 35.53125 -69.921875 C 30.519531 -69.921875 26.457031 -68.738281 23.34375 -66.375 C 20.238281 -64.019531 18.6875 -61.097656 18.6875 -57.609375 C 18.6875 -54.585938 19.601562 -52.109375 21.4375 -50.171875 C 23.28125 -48.234375 25.566406 -46.722656 28.296875 -45.640625 C 31.035156 -44.554688 34.71875 -43.351562 39.34375 -42.03125 C 44.914062 -40.519531 49.351562 -39.054688 52.65625 -37.640625 C 55.957031 -36.234375 58.785156 -34.160156 61.140625 -31.421875 C 63.503906 -28.679688 64.734375 -25.046875 64.828125 -20.515625 C 64.828125 -16.367188 63.691406 -12.664062 61.421875 -9.40625 C 59.160156 -6.15625 56 -3.585938 51.9375 -1.703125 C 47.882812 0.179688 43.21875 1.125 37.9375 1.125 Z M 37.9375 1.125 "/></g></g></g></g></g><g fill="#ffffff" fill-opacity="1"><g transform="translate(212.092942, 225.12172)"><g><path d="M 56.453125 -130.265625 C 63.378906 -130.265625 70.148438 -129.253906 76.765625 -127.234375 C 83.378906 -125.222656 88.289062 -123.234375 91.5 -121.265625 L 96.15625 -118.171875 L 84.359375 -94.90625 C 83.429688 -95.53125 82.140625 -96.332031 80.484375 -97.3125 C 78.828125 -98.289062 75.722656 -99.609375 71.171875 -101.265625 C 66.628906 -102.921875 62.394531 -103.75 58.46875 -103.75 C 53.601562 -103.75 49.851562 -102.710938 47.21875 -100.640625 C 44.582031 -98.578125 43.265625 -95.785156 43.265625 -92.265625 C 43.265625 -90.515625 43.882812 -88.890625 45.125 -87.390625 C 46.363281 -85.890625 48.484375 -84.285156 51.484375 -82.578125 C 54.484375 -80.867188 57.117188 -79.5 59.390625 -78.46875 C 61.671875 -77.4375 65.1875 -75.882812 69.9375 -73.8125 C 78.207031 -70.300781 85.265625 -65.519531 91.109375 -59.46875 C 96.953125 -53.425781 99.875 -46.578125 99.875 -38.921875 C 99.875 -31.585938 98.554688 -25.175781 95.921875 -19.6875 C 93.285156 -14.207031 89.664062 -9.914062 85.0625 -6.8125 C 80.457031 -3.71875 75.363281 -1.421875 69.78125 0.078125 C 64.195312 1.578125 58.148438 2.328125 51.640625 2.328125 C 46.054688 2.328125 40.578125 1.757812 35.203125 0.625 C 29.828125 -0.507812 25.328125 -1.929688 21.703125 -3.640625 C 18.085938 -5.347656 14.832031 -7.03125 11.9375 -8.6875 C 9.039062 -10.34375 6.921875 -11.738281 5.578125 -12.875 L 3.5625 -14.578125 L 18.140625 -39.078125 C 19.378906 -38.046875 21.082031 -36.726562 23.25 -35.125 C 25.425781 -33.519531 29.28125 -31.375 34.8125 -28.6875 C 40.34375 -26 45.226562 -24.65625 49.46875 -24.65625 C 61.769531 -24.65625 67.921875 -28.84375 67.921875 -37.21875 C 67.921875 -38.976562 67.476562 -40.609375 66.59375 -42.109375 C 65.71875 -43.609375 64.171875 -45.101562 61.953125 -46.59375 C 59.734375 -48.09375 57.769531 -49.28125 56.0625 -50.15625 C 54.351562 -51.039062 51.5625 -52.382812 47.6875 -54.1875 C 43.8125 -56 40.941406 -57.375 39.078125 -58.3125 C 31.328125 -62.132812 25.332031 -66.914062 21.09375 -72.65625 C 16.851562 -78.394531 14.734375 -84.570312 14.734375 -91.1875 C 14.734375 -102.664062 18.972656 -112.046875 27.453125 -119.328125 C 35.929688 -126.617188 45.597656 -130.265625 56.453125 -130.265625 Z M 56.453125 -130.265625 "/></g></g></g><g fill="#ffffff" fill-opacity="1"><g transform="translate(310.198892, 215.961009)"><g><path d="M 56.421875 1 C 46.960938 1 38.296875 -1.191406 30.421875 -5.578125 C 22.546875 -9.972656 16.289062 -16.109375 11.65625 -23.984375 C 7.03125 -31.859375 4.71875 -40.710938 4.71875 -50.546875 C 4.71875 -60.378906 7.03125 -69.207031 11.65625 -77.03125 C 16.289062 -84.863281 22.546875 -90.972656 30.421875 -95.359375 C 38.296875 -99.753906 46.960938 -101.953125 56.421875 -101.953125 C 65.867188 -101.953125 74.53125 -99.753906 82.40625 -95.359375 C 90.28125 -90.972656 96.484375 -84.863281 101.015625 -77.03125 C 105.546875 -69.207031 107.8125 -60.378906 107.8125 -50.546875 C 107.8125 -40.710938 105.519531 -31.859375 100.9375 -23.984375 C 96.363281 -16.109375 90.160156 -9.972656 82.328125 -5.578125 C 74.503906 -1.191406 65.867188 1 56.421875 1 Z M 56.421875 -21.328125 C 64.429688 -21.328125 70.847656 -24 75.671875 -29.34375 C 80.492188 -34.695312 82.90625 -41.765625 82.90625 -50.546875 C 82.90625 -59.421875 80.492188 -66.503906 75.671875 -71.796875 C 70.847656 -77.097656 64.429688 -79.75 56.421875 -79.75 C 48.304688 -79.75 41.835938 -77.125 37.015625 -71.875 C 32.191406 -66.625 29.78125 -59.515625 29.78125 -50.546875 C 29.78125 -41.671875 32.191406 -34.582031 37.015625 -29.28125 C 41.835938 -23.976562 48.304688 -21.328125 56.421875 -21.328125 Z M 56.421875 -21.328125 "/></g></g></g><g fill="#ffffff" fill-opacity="1"><g transform="translate(416.600221, 217.913057)"><g><path d="M 37.171875 -109.15625 L 37.171875 0 L 8.265625 0 L 8.265625 -109.15625 Z M 37.171875 -109.15625 "/></g></g></g><g fill="#ffffff" fill-opacity="1"><g transform="translate(454.379239, 217.913057)"><g><path d="M 37.171875 -109.15625 L 37.171875 0 L 8.265625 0 L 8.265625 -109.15625 Z M 37.171875 -109.15625 "/></g></g></g></svg>