<svg xmlns="http://www.w3.org/2000/svg" xmlns:xlink="http://www.w3.org/1999/xlink" width="556" zoomAndPan="magnify" viewBox="0 0 416.88 333.749992" height="445" preserveAspectRatio="xMidYMid meet" version="1.0"><defs><g/><clipPath id="620d44f478"><path d="M 0.0976562 0 L 416.664062 0 L 416.664062 333.5 L 0.0976562 333.5 Z M 0.0976562 0 " clip-rule="nonzero"/></clipPath></defs><g clip-path="url(#620d44f478)"><path fill="#ffffff" d="M 0.0976562 0 L 416.785156 0 L 416.785156 333.5 L 0.0976562 333.5 Z M 0.0976562 0 " fill-opacity="1" fill-rule="nonzero"/></g><g fill="#ffffff" fill-opacity="1"><g transform="translate(57.341817, 224.720108)"><g><path d="M 56.46875 -130.3125 C 63.394531 -130.3125 70.164062 -129.300781 76.78125 -127.28125 C 83.40625 -125.269531 88.320312 -123.28125 91.53125 -121.3125 L 96.1875 -118.21875 L 84.390625 -94.953125 C 83.460938 -95.566406 82.171875 -96.363281 80.515625 -97.34375 C 78.859375 -98.332031 75.753906 -99.65625 71.203125 -101.3125 C 66.660156 -102.96875 62.421875 -103.796875 58.484375 -103.796875 C 53.628906 -103.796875 49.878906 -102.757812 47.234375 -100.6875 C 44.597656 -98.613281 43.28125 -95.820312 43.28125 -92.3125 C 43.28125 -90.550781 43.898438 -88.921875 45.140625 -87.421875 C 46.378906 -85.921875 48.5 -84.316406 51.5 -82.609375 C 54.5 -80.898438 57.132812 -79.53125 59.40625 -78.5 C 61.6875 -77.46875 65.207031 -75.914062 69.96875 -73.84375 C 78.238281 -70.332031 85.296875 -65.550781 91.140625 -59.5 C 96.984375 -53.445312 99.90625 -46.59375 99.90625 -38.9375 C 99.90625 -31.59375 98.585938 -25.179688 95.953125 -19.703125 C 93.316406 -14.222656 89.695312 -9.929688 85.09375 -6.828125 C 80.488281 -3.722656 75.394531 -1.421875 69.8125 0.078125 C 64.226562 1.578125 58.175781 2.328125 51.65625 2.328125 C 46.070312 2.328125 40.59375 1.753906 35.21875 0.609375 C 29.84375 -0.523438 25.34375 -1.941406 21.71875 -3.640625 C 18.101562 -5.347656 14.847656 -7.03125 11.953125 -8.6875 C 9.054688 -10.34375 6.929688 -11.738281 5.578125 -12.875 L 3.5625 -14.578125 L 18.15625 -39.09375 C 19.394531 -38.0625 21.097656 -36.742188 23.265625 -35.140625 C 25.441406 -33.535156 29.296875 -31.390625 34.828125 -28.703125 C 40.359375 -26.015625 45.242188 -24.671875 49.484375 -24.671875 C 61.796875 -24.671875 67.953125 -28.859375 67.953125 -37.234375 C 67.953125 -38.992188 67.507812 -40.625 66.625 -42.125 C 65.75 -43.625 64.195312 -45.125 61.96875 -46.625 C 59.75 -48.125 57.785156 -49.3125 56.078125 -50.1875 C 54.378906 -51.0625 51.585938 -52.40625 47.703125 -54.21875 C 43.828125 -56.03125 40.957031 -57.398438 39.09375 -58.328125 C 31.332031 -62.160156 25.332031 -66.945312 21.09375 -72.6875 C 16.851562 -78.425781 14.734375 -84.601562 14.734375 -91.21875 C 14.734375 -102.695312 18.972656 -112.082031 27.453125 -119.375 C 35.941406 -126.664062 45.613281 -130.3125 56.46875 -130.3125 Z M 56.46875 -130.3125 "/></g></g></g><g fill="#ffffff" fill-opacity="1"><g transform="translate(155.479407, 216.48446)"><g><path d="M 56.4375 1 C 46.976562 1 38.3125 -1.191406 30.4375 -5.578125 C 22.5625 -9.972656 16.304688 -16.109375 11.671875 -23.984375 C 7.046875 -31.867188 4.734375 -40.726562 4.734375 -50.5625 C 4.734375 -60.394531 7.046875 -69.226562 11.671875 -77.0625 C 16.304688 -84.894531 22.5625 -91.003906 30.4375 -95.390625 C 38.3125 -99.785156 46.976562 -101.984375 56.4375 -101.984375 C 65.882812 -101.984375 74.546875 -99.785156 82.421875 -95.390625 C 90.304688 -91.003906 96.515625 -84.894531 101.046875 -77.0625 C 105.585938 -69.226562 107.859375 -60.394531 107.859375 -50.5625 C 107.859375 -40.726562 105.566406 -31.867188 100.984375 -23.984375 C 96.398438 -16.109375 90.191406 -9.972656 82.359375 -5.578125 C 74.523438 -1.191406 65.882812 1 56.4375 1 Z M 56.4375 -21.34375 C 64.457031 -21.34375 70.878906 -24.015625 75.703125 -29.359375 C 80.523438 -34.710938 82.9375 -41.78125 82.9375 -50.5625 C 82.9375 -59.4375 80.523438 -66.523438 75.703125 -71.828125 C 70.878906 -77.128906 64.457031 -79.78125 56.4375 -79.78125 C 48.320312 -79.78125 41.851562 -77.15625 37.03125 -71.90625 C 32.207031 -66.65625 29.796875 -59.539062 29.796875 -50.5625 C 29.796875 -41.675781 32.207031 -34.582031 37.03125 -29.28125 C 41.851562 -23.988281 48.320312 -21.34375 56.4375 -21.34375 Z M 56.4375 -21.34375 "/></g></g></g><g fill="#ffffff" fill-opacity="1"><g transform="translate(261.915009, 217.983337)"><g><path d="M 37.1875 -109.203125 L 37.1875 0 L 8.265625 0 L 8.265625 -109.203125 Z M 37.1875 -109.203125 "/></g></g></g><g fill="#ffffff" fill-opacity="1"><g transform="translate(299.706271, 217.983337)"><g><path d="M 37.1875 -109.203125 L 37.1875 0 L 8.265625 0 L 8.265625 -109.203125 Z M 37.1875 -109.203125 "/></g></g></g></svg>