<svg xmlns="http://www.w3.org/2000/svg" xmlns:xlink="http://www.w3.org/1999/xlink" width="1024" zoomAndPan="magnify" viewBox="0 0 768 767.999994" height="1024" preserveAspectRatio="xMidYMid meet" version="1.0"><defs><clipPath id="67442355ed"><path d="M 0.0625 0.0625 L 647.9375 0.0625 L 647.9375 647.9375 L 0.0625 647.9375 Z M 0.0625 0.0625 " clip-rule="nonzero"/></clipPath><clipPath id="93341ea5ef"><path d="M 324 0.0625 C 145.09375 0.0625 0.0625 145.09375 0.0625 324 C 0.0625 502.90625 145.09375 647.9375 324 647.9375 C 502.90625 647.9375 647.9375 502.90625 647.9375 324 C 647.9375 145.09375 502.90625 0.0625 324 0.0625 Z M 324 0.0625 " clip-rule="nonzero"/></clipPath><clipPath id="df991d6e6c"><path d="M 0.0625 0.0625 L 647.9375 0.0625 L 647.9375 647.9375 L 0.0625 647.9375 Z M 0.0625 0.0625 " clip-rule="nonzero"/></clipPath><clipPath id="5dd0c1d800"><path d="M 324 0.0625 C 145.09375 0.0625 0.0625 145.09375 0.0625 324 C 0.0625 502.90625 145.09375 647.9375 324 647.9375 C 502.90625 647.9375 647.9375 502.90625 647.9375 324 C 647.9375 145.09375 502.90625 0.0625 324 0.0625 Z M 324 0.0625 " clip-rule="nonzero"/></clipPath><clipPath id="a7801bf4ed"><rect x="0" width="648" y="0" height="648"/></clipPath><clipPath id="3e42da0fc2"><path d="M 141.523438 94 L 505 94 L 505 553 L 141.523438 553 Z M 141.523438 94 " clip-rule="nonzero"/></clipPath><clipPath id="5422cabb2f"><rect x="0" width="648" y="0" height="648"/></clipPath></defs><g transform="matrix(1, 0, 0, 1, 60, 60)"><g clip-path="url(#5422cabb2f)"><g clip-path="url(#67442355ed)"><g clip-path="url(#93341ea5ef)"><g transform="matrix(1, 0, 0, 1, 0, -0.000000000000056843)"><g clip-path="url(#a7801bf4ed)"><g clip-path="url(#df991d6e6c)"><g clip-path="url(#5dd0c1d800)"><path fill="#52688f" d="M 0.0625 0.0625 L 647.9375 0.0625 L 647.9375 647.9375 L 0.0625 647.9375 Z M 0.0625 0.0625 " fill-opacity="1" fill-rule="nonzero"/></g></g></g></g></g></g><g clip-path="url(#3e42da0fc2)"><path fill="#ffffff" d="M 317.894531 552.597656 C 294.796875 552.597656 271.910156 550.5 249.234375 546.300781 C 226.976562 542.519531 207.242188 537.480469 190.023438 531.183594 C 172.804688 524.882812 160.417969 518.585938 152.859375 512.285156 L 152.859375 380.636719 C 168.816406 389.457031 186.664062 397.433594 206.402344 404.574219 C 226.136719 411.710938 246.085938 417.382812 266.242188 421.582031 C 286.820312 425.359375 306.34375 427.25 324.824219 427.25 C 350.4375 427.25 363.246094 421.371094 363.246094 409.613281 C 363.246094 409.570312 363.246094 409.53125 363.246094 409.492188 L 421.089844 396.136719 C 423.785156 402.210938 426.828125 408.136719 430.21875 413.910156 C 446.113281 440.546875 467.796875 461.8125 495.265625 477.703125 C 487.421875 491.230469 476.796875 503.386719 463.402344 514.175781 C 431.066406 539.792969 382.5625 552.597656 317.894531 552.597656 Z M 409.0625 357.714844 C 406.640625 345.261719 405.433594 332.285156 405.433594 318.785156 C 405.433594 307.570312 406.226562 296.757812 407.816406 286.359375 C 393.796875 280.320312 378.101562 274.371094 360.726562 268.515625 C 332.589844 258.855469 313.0625 251.296875 302.144531 245.839844 C 291.648438 239.960938 286.398438 232.609375 286.398438 223.792969 C 286.398438 212.453125 294.796875 206.785156 311.59375 206.785156 L 423.59375 235.222656 C 425.628906 231.058594 427.839844 226.980469 430.21875 222.992188 C 446.742188 194.855469 469.519531 172.972656 498.546875 157.34375 C 500.167969 156.445312 501.796875 155.574219 503.441406 154.726562 L 504.34375 151.984375 L 426.867188 99.703125 C 417.628906 98.023438 405.238281 96.761719 389.703125 95.921875 C 374.585938 94.660156 360.308594 94.03125 346.867188 94.03125 C 279.679688 94.03125 228.65625 107.261719 193.804688 133.714844 C 158.949219 160.171875 141.523438 195.234375 141.523438 238.910156 C 141.523438 264.105469 146.5625 284.261719 156.640625 299.378906 C 167.136719 314.496094 182.046875 326.886719 201.363281 336.542969 C 221.097656 346.203125 244.824219 355.441406 272.539062 364.257812 C 291.152344 369.808594 306.464844 374.601562 318.476562 378.628906 Z M 409.0625 357.714844 " fill-opacity="1" fill-rule="evenodd"/></g></g></g></svg>