<svg xmlns="http://www.w3.org/2000/svg" xmlns:xlink="http://www.w3.org/1999/xlink" width="1024" zoomAndPan="magnify" viewBox="0 0 768 767.999994" height="1024" preserveAspectRatio="xMidYMid meet" version="1.0"><defs><clipPath id="c94deff269"><path d="M 0.0625 0.0625 L 647.9375 0.0625 L 647.9375 647.9375 L 0.0625 647.9375 Z M 0.0625 0.0625 " clip-rule="nonzero"/></clipPath><clipPath id="de9378b6ec"><path d="M 324 0.0625 C 145.09375 0.0625 0.0625 145.09375 0.0625 324 C 0.0625 502.90625 145.09375 647.9375 324 647.9375 C 502.90625 647.9375 647.9375 502.90625 647.9375 324 C 647.9375 145.09375 502.90625 0.0625 324 0.0625 Z M 324 0.0625 " clip-rule="nonzero"/></clipPath><clipPath id="bac99da6f8"><path d="M 0.0625 0.0625 L 647.9375 0.0625 L 647.9375 647.9375 L 0.0625 647.9375 Z M 0.0625 0.0625 " clip-rule="nonzero"/></clipPath><clipPath id="8b3467fd7e"><path d="M 324 0.0625 C 145.09375 0.0625 0.0625 145.09375 0.0625 324 C 0.0625 502.90625 145.09375 647.9375 324 647.9375 C 502.90625 647.9375 647.9375 502.90625 647.9375 324 C 647.9375 145.09375 502.90625 0.0625 324 0.0625 Z M 324 0.0625 " clip-rule="nonzero"/></clipPath><clipPath id="263aa6036f"><rect x="0" width="648" y="0" height="648"/></clipPath><clipPath id="4869ec8961"><path d="M 141.523438 94 L 504 94 L 504 553 L 141.523438 553 Z M 141.523438 94 " clip-rule="nonzero"/></clipPath><clipPath id="1f8c452461"><rect x="0" width="648" y="0" height="648"/></clipPath></defs><g transform="matrix(1, 0, 0, 1, 60, 60)"><g clip-path="url(#1f8c452461)"><g clip-path="url(#c94deff269)"><g clip-path="url(#de9378b6ec)"><g transform="matrix(1, 0, 0, 1, 0, -0.000000000000056843)"><g clip-path="url(#263aa6036f)"><g clip-path="url(#bac99da6f8)"><g clip-path="url(#8b3467fd7e)"><path fill="#ffffff" d="M 0.0625 0.0625 L 647.9375 0.0625 L 647.9375 647.9375 L 0.0625 647.9375 Z M 0.0625 0.0625 " fill-opacity="1" fill-rule="nonzero"/></g></g></g></g></g></g><g clip-path="url(#4869ec8961)"><path fill="#52688f" d="M 317.628906 552.8125 C 294.566406 552.8125 271.714844 550.710938 249.074219 546.507812 C 226.851562 542.726562 207.140625 537.6875 189.949219 531.382812 C 172.757812 525.082031 160.390625 518.78125 152.84375 512.480469 L 152.84375 380.769531 C 168.777344 389.589844 186.597656 397.574219 206.304688 404.714844 C 226.011719 411.859375 245.929688 417.53125 266.054688 421.730469 C 286.601562 425.511719 306.097656 427.402344 324.546875 427.402344 C 350.125 427.402344 362.914062 421.519531 362.914062 409.757812 C 362.914062 409.71875 362.914062 409.675781 362.914062 409.636719 L 420.667969 396.277344 C 423.359375 402.355469 426.398438 408.28125 429.785156 414.058594 C 445.65625 440.707031 467.308594 461.980469 494.734375 477.878906 C 486.902344 491.414062 476.292969 503.578125 462.917969 514.371094 C 430.628906 539.996094 382.203125 552.8125 317.628906 552.8125 Z M 408.660156 357.835938 C 406.242188 345.378906 405.035156 332.394531 405.035156 318.890625 C 405.035156 307.667969 405.828125 296.851562 407.414062 286.445312 C 393.417969 280.40625 377.746094 274.453125 360.398438 268.59375 C 332.304688 258.933594 312.808594 251.371094 301.90625 245.90625 C 291.421875 240.027344 286.179688 232.675781 286.179688 223.851562 C 286.179688 212.507812 294.566406 206.835938 311.339844 206.835938 L 423.167969 235.285156 C 425.203125 231.121094 427.410156 227.042969 429.785156 223.050781 C 446.285156 194.902344 469.027344 173.007812 498.011719 157.371094 C 499.628906 156.472656 501.257812 155.601562 502.898438 154.753906 L 503.800781 152.011719 L 426.4375 99.703125 C 417.214844 98.023438 404.84375 96.761719 389.328125 95.921875 C 374.234375 94.664062 359.976562 94.03125 346.5625 94.03125 C 279.472656 94.03125 228.527344 107.265625 193.726562 133.734375 C 158.921875 160.203125 141.523438 195.28125 141.523438 238.976562 C 141.523438 264.183594 146.554688 284.351562 156.617188 299.472656 C 167.097656 314.597656 181.984375 326.992188 201.273438 336.65625 C 220.980469 346.320312 244.671875 355.5625 272.34375 364.382812 C 290.929688 369.9375 306.214844 374.730469 318.210938 378.757812 Z M 408.660156 357.835938 " fill-opacity="1" fill-rule="evenodd"/></g></g></g></svg>